<svg xmlns="http://www.w3.org/2000/svg" xmlns:xlink="http://www.w3.org/1999/xlink" viewBox="-76.0513 -111.4849 152.1026 111.4849" width="152.10260009765625" height="111.48490142822266" x="83.5px" y="127.9624px" preserveAspectRatio="none"><style>.icon1{fill:#fff;fill-opacity:1;}</style><g opacity="1" transform="rotate(0 -76.0513 -111.4849)"><svg width="152.1026" height="111.4849" x="-76.0513" y="-111.4849" version="1.1" preserveAspectRatio="none" viewBox="8.07036304473877 21.4959716796875 77.7724838256836 57.0040283203125"><g transform="matrix(1 0 0 1 0 0)" class="icon1"><g><path d="m53 78.5c-1.6016 0-4-0.39844-5.3984-2.1992 0 0-0.10156-0.10156-0.10156-0.19922 0-0.10156-0.10156-0.39844-0.30078-1-5.8008-0.30078-11.398-1.1992-11.898-3.6992v-0.30078c0.30078-0.69922 0.80078-2.1992 0.39844-2.8008-0.60156-0.80078-1.8008-0.89844-1.8008-0.89844h-0.10156c-0.10156 0-2.1016-0.69922-2.5-3.8008 0-0.30078 0.19922-0.5 0.39844-0.60156 0.30078 0 0.5 0.19922 0.60156 0.39844 0.30078 2.1992 1.5 2.8984 1.6992 3 0.30078 0 1.6016 0.19922 2.3984 1.1992 0.89844 1 0.10156 3-0.10156 3.6992 0.39844 1.1016 2.6992 2.3984 10.602 2.8008-0.19922-0.89844-0.30078-2-0.39844-3.1016-3.3008-0.60156-3.8008-2-4.1992-3.6992v-0.19922c-0.39844-1.8984 1.1992-3.6016 4.1992-4.6992 1.1016-0.39844 2-0.30078 2.6992 0.10156 1 0.69922 1.3984 2.1992 1.3984 3.1992 0 0.89844-0.60156 1.1992-1.1016 1.3984-0.60156 0.30078-1.1992 0.60156-1.6992 1.6992-0.10156 0.39844-0.19922 0.80078-0.30078 1.3008 0.39844 0 0.69922 0.10156 1.1992 0.10156 1.3008 0.10156 2.3984 0.30078 3.3008 0.5 0.89844-2.3008 5.3984-4.8984 6-5.1016 0.10156 0 0.19922-0.10156 0.30078-0.10156 8.5 0.39844 11.301-2.8984 14.102-6 0.69922-0.80078 1.3984-1.6016 2.1992-2.3008 3.3047-3.0938 0.40625-9.1953 0.40625-9.1953-0.10156-0.19922-0.10156-0.30078 0-0.5 0.10156-0.10156 0.19922-0.19922 0.39844-0.19922 2.1992 0 2.8984-0.30078 3.6992-0.60156 0.5-0.19922 1.1992-0.5 2.1992-0.69922 1.3984-0.19922 1.6016-0.80078 2-1.6016 0.19922-0.5 0.5-1.1016 1-1.6016 0.39844-0.39844 0.39844-0.69922 0.39844-0.80078-0.10156-0.5-0.69922-1.1992-1.6016-1.6016-1.3984-0.69922-3.6016-3.3984-4.6016-4.8008l-0.19922-0.19922c-0.39844-0.60156-2.8008-0.5-4.8008-0.19922-0.10156 0-0.30078 0-0.39844-0.10156-0.10156-0.10156-0.19922-0.19922-0.19922-0.30078-1.1016-9.8984-10-11.898-11.5-12.199-0.10156 0.10156-0.10156 0.10156-0.10156 0.30078-0.30078 1.1992 1.1016 4 2 5.5 0.10156 0.19922 0.10156 0.5-0.10156 0.60156-0.19922 0.19922-0.5 0.19922-0.69922 0-5-4.1992-9.1992-3.1016-10.301-2.6992-0.10156 1.8008 1.6992 5.1016 12.898 9.5 0.19922 0.10156 0.39844 0.19922 0.5 0.19922 1 0.39844 1.1992 2.1016 1 3.5-0.30078 1.6992-1.3008 2.8008-2.6016 2.8008-0.69922 0-1.8008-0.60156-3.5-1.3984-4.1992-2.1016-11.898-6-21.398-3.8984-12.488 2.6992-10.59 18-10.488 18.102 0 0.19922-0.10156 0.39844-0.19922 0.5-0.19922 0.10156-0.39844 0.10156-0.5 0-0.39844-0.19922-0.69922-0.19922-1-0.10156-0.69922 0.30078-1.1016 1.6016-1.1992 2.1016 0 0.10156-0.10156 0.19922-0.10156 0.30078-0.19922 0.19922-0.5 0.30078-0.80078 0.19922-0.69922-0.19922-1.1992-1.6992-1.5-2.8008-0.10156-0.30078 0.10156-0.5 0.39844-0.60156 0.30078-0.10156 0.5 0.10156 0.60156 0.39844 0.19922 0.69922 0.39844 1.3984 0.60156 1.8008 0.19922-0.69922 0.69922-1.8008 1.6016-2.3008 0.30078-0.10156 0.60156-0.19922 1.1016-0.19922-0.19922-3.3008-0.30078-16 11.398-18.602 9.8008-2.1992 17.801 1.8008 22.102 4 1.3984 0.69922 2.5 1.3008 3 1.3008 0.89844 0 1.3984-1 1.6016-2 0.19922-1.1992 0-2.1992-0.39844-2.3008-0.10156 0-0.30078-0.10156-0.5-0.19922-9.5-3.6992-14-7.3008-13.5-10.801 0-0.19922 0.10156-0.30078 0.30078-0.39844 0.19922-0.10156 4.3984-2 9.6992 1.3984-0.69922-1.3984-1.3008-3.1016-1-4.1992 0.10156-0.39844 0.39844-0.80078 0.80078-1 0.10156 0 0.19922-0.10156 0.30078-0.10156 0.10156 0 10.898 1.6992 12.398 12.5 1.3008-0.19922 4.3984-0.5 5.3008 0.60156l0.19922 0.19922c0.89844 1.1992 3.1016 3.8984 4.3008 4.5 0.5 0.19922 2 1.1016 2.1992 2.3984 0.10156 0.39844 0 1.1016-0.69922 1.6992-0.39844 0.39844-0.60156 0.80078-0.80078 1.3008-0.39844 0.80078-0.80078 1.8008-2.6992 2.1016-0.89844 0.19922-1.5 0.39844-2 0.60156-0.80078 0.30078-1.5 0.69922-3.3008 0.69922 0.69922 1.8008 2.1992 6.6992-1 9.6992-0.69922 0.69922-1.3984 1.3984-2.1016 2.1992-2.6992 3.1016-5.8984 6.6016-14.699 6.3008-1.3984 0.80078-4.6992 2.8984-5.3984 4.5 2 0.60156 2.6016 1.3008 2.6016 1.3984 0.10156 0.10156 0.10156 0.10156 0.10156 0.19922 0 0.30078 0.19922 1.6016-0.39844 2.3008-0.19922 0.30078-0.60156 0.39844-0.89844 0.30078h-0.60156l1.3984 2.3984c0.10156 0.10156 0.10156 0.30078 0 0.5-0.10156 0.10156-0.19922 0.30078-0.39844 0.30078-0.11328 0.10547-0.91406 0.30469-1.9141 0.30469zm-4.6016-2.8008c1.5 1.8008 4.3008 1.8008 5.6016 1.6992l-1-1.6992s-0.10156-0.19922-0.30078-0.5c-1.3984 0-2.8984 0-4.3984-0.10156 0 0.30078 0.097657 0.50391 0.097657 0.60156zm5.4023-1.5h0.69922 0.10156c0.19922-0.19922 0.19922-0.80078 0.19922-1.3008-0.19922-0.19922-0.69922-0.60156-1.8984-1 0 0.89844 0.19922 1.6992 0.5 2.3008h0.39844zm-5.8008-0.097657c1.3008 0.10156 2.6992 0.10156 4.1992 0.10156-0.19922-0.69922-0.39844-1.6016-0.39844-2.5-0.80078-0.19922-1.8984-0.39844-3.1992-0.39844-0.39844 0-0.80078-0.10156-1.1016-0.10156 0.19922 0.89844 0.30078 1.9961 0.5 2.8984zm0-11c-0.30078 0-0.60156 0.10156-1 0.19922-2.6016 1-3.8984 2.3008-3.6016 3.6016v0.19922c0.19922 1.1992 0.5 2.3008 3.1992 2.8008 0-0.60156 0.10156-1.1016 0.30078-1.5 0.60156-1.5 1.5-1.8984 2.1992-2.1992 0.5-0.30078 0.60156-0.30078 0.60156-0.5 0-0.60156-0.19922-1.8984-0.89844-2.3984-0.19922-0.20313-0.5-0.20313-0.80078-0.20313z"></path><path d="m22.801 53.102c-0.19922 0-0.39844-0.10156-0.5-0.30078-0.19922-0.69922-1.3008-4.1016-0.89844-5.1992 0.10156-0.30078 0.39844-0.39844 0.60156-0.30078 0.30078 0.10156 0.39844 0.39844 0.30078 0.60156-0.19922 0.5 0.30078 2.8008 0.89844 4.5 0.10156 0.30078-0.10156 0.5-0.30078 0.60156-0.003906 0.097656-0.10156 0.097656-0.10156 0.097656z"></path><path d="m22.301 45.602h-0.19922c-0.30078-0.10156-0.39844-0.39844-0.30078-0.69922 0.30078-0.60156 0.80078-2.3008 0.10156-3.1016-0.19922-0.19922-0.10156-0.5 0.10156-0.69922 0.19922-0.19922 0.5-0.10156 0.69922 0.10156 1.1992 1.5 0.10156 4 0.10156 4.1016-0.10547 0.19531-0.30469 0.29687-0.50391 0.29687z"></path><path d="m21.301 40.301c-0.19922 0-0.39844-0.10156-0.5-0.30078-0.30078-1-2.3984-1.3008-3-1.3008-0.30078 0-0.5-0.19922-0.5-0.5s0.30078-0.5 0.5-0.5c0.30078 0 3.3984 0.19922 4 2 0.10156 0.30078-0.10156 0.5-0.30078 0.60156h-0.19922z"></path><path d="m13.398 41.102c-0.19922 0-0.39844-0.10156-0.5-0.39844-0.30078-1 0-1.6016 0.30078-2 0.89844-1.1016 3-1 3.1992-1 0.30078 0 0.5 0.30078 0.5 0.5 0 0.30078-0.19922 0.5-0.5 0.5-0.5 0-1.8984 0-2.3984 0.60156-0.19922 0.30078-0.19922 0.60156-0.10156 1.1016 0.10156 0.30078-0.10156 0.5-0.30078 0.60156-0.097656 0.09375-0.097656 0.09375-0.19922 0.09375z"></path><path d="m13.5 46.301h-0.19922c-0.30078 0-0.5-0.30078-0.39844-0.60156 0-0.30078 0.30078-0.5 0.60156-0.39844h0.10156c0.19922-0.19922 0-1.6016-0.69922-3.1992-0.10156-0.30078 0-0.5 0.30078-0.69922 0.30078-0.10156 0.5 0 0.69922 0.30078 0.30078 0.69922 1.3008 3.1992 0.60156 4.1992-0.30859 0.19922-0.60937 0.39844-1.0078 0.39844z"></path><path d="m11.699 46.301c-0.60156 0-3-0.10156-3.6016-2.3008-0.10156-0.30078 0.10156-0.5 0.30078-0.60156 0.30078-0.10156 0.5 0.10156 0.60156 0.30078 0.5 1.6992 2.6992 1.6016 2.6992 1.6016 0.30078 0 0.5 0.19922 0.5 0.5s-0.19922 0.5-0.5 0.5c0.10156 0 0.10156 0 0 0z"></path></g></g></svg></g></svg>
